<?xml version="1.0" encoding="UTF-8" standalone="no"?>
<svg
   xmlns:svg="http://www.w3.org/2000/svg"
   xmlns="http://www.w3.org/2000/svg"
   version="1.1"
   width="300"
   height="300"
   >
  <g>
    <path      
       d="m 84.649624,51.006359 v 73.737321 120.377 c -8.263559,-5.49276 -19.969253,-8.98372 -33.054239,-8.98372 -24.998185,0 -45.260385,12.5113 -45.260385,27.97648 0,15.44077 20.2622,27.96427 45.260385,27.96427 24.998184,0 45.260384,-12.5235 45.260384,-27.96427 V 121.11845 L 230.08583,81.570545 V 198.32231 c -8.27576,-5.49275 -19.95704,-8.98371 -33.05423,-8.98371 -24.99819,0 -45.26039,12.5113 -45.26039,27.97648 0,15.44078 20.2622,27.96427 45.26039,27.96427 24.99818,0 45.26038,-12.52349 45.26038,-27.96427 V 77.945319 4.208 L 84.649624,51.006359 z"
       />
  </g>
</svg>
